<svg enable-background="new 0 0 32 32" viewBox="0 0 32 32" xmlns="http://www.w3.org/2000/svg"><g style="fill:none;stroke:#000;stroke-width:2;stroke-linecap:round;stroke-linejoin:round;stroke-miterlimit:10"><path d="m20.3 20.7c1.1-1 1.8-2.1 2.1-3.1l3.5-2c.6.3 1.3.3 1.9 0 .9-.5 1.3-1.7.7-2.6-.2-.3-.4-.5-.7-.7 0-.3-.1-.7-.2-1-.5-.9-1.7-1.2-2.6-.7-.6.4-1 1-1 1.7l-3.5 2c-1.5-.4-3.7-.1-5.7 1.1-1.5.9-2.7 2-3.3 3.2"/><path d="m22.7 17.4c.2.6.3 1.3.3 1.9 0 4.6-4.5 5.7-10 5.7s-10-1.1-10-5.7 4.5-8.3 10-8.3c3.2 0 6 1.2 7.8 3.1"/><path d="m23.7 12.4c.2-.5.1-1-.2-1.5-.2-.3-.4-.5-.7-.7 0-.3-.1-.7-.2-1-.5-.9-1.7-1.2-2.6-.7-.6.4-1 1-1 1.7l-2.3 1.3"/></g></svg>