<svg enable-background="new 0 0 32 32" viewBox="0 0 32 32" xmlns="http://www.w3.org/2000/svg"><g style="fill:none;stroke:#000;stroke-width:2;stroke-linecap:round;stroke-linejoin:round;stroke-miterlimit:10"><path d="m11 9v2"/><path d="m21 9v2"/><path d="m16 8v2"/><path d="m27.8 14c-.9-5.7-5.9-10-11.8-10s-10.9 4.3-11.8 10z"/><path d="m4 16 1.5 1c.9.6 2.1.6 3 0 .9-.6 2.1-.6 3 0 .9.6 2.1.6 3 0 .9-.6 2.1-.6 3 0 .9.6 2.1.6 3 0 .9-.6 2.1-.6 3 0 .9.6 2.1.6 3 0l1.5-1"/><path d="m27 24h-22c-1.1 0-2-.9-2-2 0-1.1.9-2 2-2h22c1.1 0 2 .9 2 2 0 1.1-.9 2-2 2z"/><path d="m27 24v1.4c0 1.5-1.2 2.6-2.6 2.6h-16.8c-1.4 0-2.6-1.2-2.6-2.6v-1.4"/></g></svg>