<svg enable-background="new 0 0 32 32" viewBox="0 0 32 32" xmlns="http://www.w3.org/2000/svg"><g style="fill:none;stroke:#000;stroke-width:2;stroke-linecap:round;stroke-linejoin:round;stroke-miterlimit:10"><path d="m27.7 9.9c-2.6-1.2-6.3-1.9-10.4-1.9-7.9 0-14.3 2.7-14.3 6 0 2.2 1.4 4.5 4.8 5.5 2.1.6 4.4.5 6.4-.2 2.2-.7 4.1-2 5.9-3.4 1.4-1.1 3.2-1.8 5.1-1.8h1.3c2.6-.1 3.4-3.2 1.2-4.2z"/><ellipse cx="11.5" cy="14" rx="3.5" ry="2"/><path d="m29 12v5c-.1 1-1 2-2.4 2h-1.3c-1.9 0-3.8.7-5.1 1.8-1.8 1.5-3.7 2.7-5.9 3.4-2.1.7-4.3.8-6.4.2-3.5-.9-4.9-3.2-4.9-5.4v-5"/></g></svg>