<svg viewBox="0 0 64 64" xmlns="http://www.w3.org/2000/svg"><path d="m57.85 25.56h-3.73c-.37-1.58-1.76-2.92-2.2-4.34-.41-1.78.4-4.07-.65-5.79s-3.35-2.22-4.69-3.43-1.66-3.69-3.45-4.69-4-.25-5.79-.65c-1.74-.58-3.27-2.38-5.34-2.35s-3.6 1.77-5.34 2.33c-1.78.4-4.07-.4-5.79.65s-2.22 3.34-3.45 4.71-3.69 1.66-4.69 3.45-.25 4-.65 5.79c-.43 1.42-1.83 2.76-2.2 4.34h-3.73a1 1 0 0 0 -1 1v10.6a17.27 17.27 0 0 0 16.17 17.2v4.31a1 1 0 0 0 1 1h19.36a1 1 0 0 0 1-1v-4.31a17.27 17.27 0 0 0 16.17-17.2v-10.62a1 1 0 0 0 -1-1zm-45-1.44a9 9 0 0 0 1.15-2.38c.5-1.61-.25-3.9.44-5.31.87-1.32 3.23-1.79 4.38-3a9.28 9.28 0 0 0 1.49-2.27c1-2.11 1.79-2.61 4.11-2.39a7.11 7.11 0 0 0 5.12-1.36 5.11 5.11 0 0 1 2.46-1.1c1.59.08 3.17 1.89 4.82 2.26s3.9-.25 5.31.45c1.31.87 1.79 3.23 3 4.38s3.51 1.72 4.38 3c.69 1.41-.06 3.7.45 5.31.35 1.38 1.45 2.56 2 3.82h-39.96a9.61 9.61 0 0 1 .82-1.41zm27.83 33.57h-17.36v-3.26h17.36zm16.17-20.51a15.27 15.27 0 0 1 -15.25 15.25h-19.2a15.27 15.27 0 0 1 -15.25-15.25v-9.62h49.7z"/><path d="m23.32 16.9a1 1 0 0 0 -1-1h-1.32a1 1 0 0 0 0 2h1.31a1 1 0 0 0 1.01-1z"/><path d="m19.36 21.16-1.88-.9a1 1 0 0 0 -.86 1.81 14.34 14.34 0 0 0 2.31 1 1 1 0 0 0 .43-1.91z"/><path d="m25.12 20.68-1.69.64a1 1 0 0 0 .36 1.94 15.47 15.47 0 0 0 2-.71 1 1 0 0 0 -.67-1.87z"/><path d="m30.74 13.53a1 1 0 0 0 -1-1h-1.39a1 1 0 0 0 0 2h1.39a1 1 0 0 0 1-1z"/><path d="m32.23 8.79-1.67-.39a1 1 0 0 0 -.46 1.94c.15 0 1.79.46 1.9.43a1 1 0 0 0 .23-1.98z"/><path d="m33.9 17.41c1 0 1.18-1.34 1.6-2.06a1 1 0 1 0 -1.81-.85l-.69 1.5a1 1 0 0 0 .9 1.41z"/><path d="m31.21 18.35a1 1 0 0 0 -1.36 1.47c.33.28.82.91 1.32.86a1 1 0 0 0 .68-1.68z"/><path d="m41.68 13.53a1 1 0 0 0 -1 1v1.14a1 1 0 1 0 2 0v-1.14a1 1 0 0 0 -1-1z"/><path d="m42.1 19.86-2.13-1a1 1 0 0 0 -.84 1.82 17.37 17.37 0 0 0 2.55 1.08 1 1 0 0 0 .42-1.9z"/><path d="m48.72 19.93a1 1 0 0 0 -1.29.59l-.59 1.58a1 1 0 1 0 1.87.71l.6-1.59a1 1 0 0 0 -.59-1.29z"/><path d="m35.59 22.56-1.53.3a1 1 0 0 0 -.79 1.14 1 1 0 0 0 1.17.8l1.53-.3a1 1 0 0 0 -.38-1.94z"/></svg>