<svg fill="none" height="512" viewBox="0 0 512 512" width="512" xmlns="http://www.w3.org/2000/svg"><path clip-rule="evenodd" d="m160 20c-75.1107 0-136 60.8893-136 136v192c0 75.111 60.8893 136 136 136h192c75.111 0 136-60.889 136-136v-192c0-75.1107-60.889-136-136-136zm-120 136c0-66.2742 53.7258-120 120-120h192c66.274 0 120 53.7258 120 120v192c0 66.274-53.726 120-120 120h-192c-66.2742 0-120-53.726-120-120zm136.001-24c-8.837 0-16 7.163-16 16v83.89l-.001.143.001.081v115.886c0 4.418 3.581 8 8 8 4.418 0 8-3.582 8-8v-103.056l58.733 29.367c8.131 4.065 13.267 12.376 13.267 21.466v52.223c0 4.418 3.581 8 8 8 4.418 0 8-3.582 8-8v-52.223c0-15.151-8.56-29.001-22.112-35.777l-40-20h30.112c17.673 0 32-14.327 32-32v-44c0-17.673-14.327-32-32-32zm0 16v76h56c8.836 0 16-7.163 16-16v-44c0-8.837-7.164-16-16-16zm111.999 64c0-8.837 7.163-16 16-16h40c17.673 0 32 14.327 32 32v29.538c0 17.674-14.327 32-32 32h-40v58.462c0 4.418-3.582 8-8 8s-8-3.582-8-8zm16 61.538h40c8.836 0 16-7.163 16-16v-29.538c0-8.837-7.164-16-16-16h-40z" fill="#000" fill-rule="evenodd"/></svg>