<svg enable-background="new 0 0 348.6694 181.446" viewBox="0 0 348.6694 181.446" xmlns="http://www.w3.org/2000/svg"><path d="m55 181.446h11v-38.6661h2.334v-11h-51.1348c1.1465-28.7773-.9746-57.6504-6.3945-86.0615-3.6016.6875-7.2032 1.374-10.8047 2.0615 8.4218 44.1465 8.6621 89.4473.7734 133.6661h11.1738c.8047-4.6563 1.502-9.3243 2.1328-14h40.92zm-40.1602-20c.7383-6.211 1.3203-12.4336 1.75-18.6661h38.4102v18.6661z"/><path d="m99.604.5914c-12.0996-2.8184-24.1934 4.707-27.0117 16.8046-2.8165 12.0997 4.7089 24.1934 16.8085 27.0098 12.0997 2.8184 24.1915-4.707 27.0098-16.8066 2.8184-12.0995-4.707-24.1913-16.8066-27.0078z"/><path d="m62.0742 101.5876c1.1421-9.0899 3.6289-18.2745 6.1509-26.5362-.3946-.248-.7974-.497-1.1695-.7422-10.8213-7.0937-15.333-14.5009-15.811-15.3222-1.3433-2.3057-1.7114-4.9981-1.0327-7.5811.6806-2.583 2.3242-4.748 4.6313-6.0928 1.5298-.8916 3.27-1.3642 5.0332-1.3642 3.4976 0 6.7862 1.8613 8.5826 4.8555.0288.0458.1137.1699.2441.3564.2793.3848.7803 1.0361 1.519 1.8623.8462.9414 2.0762 2.1748 3.7051 3.5332.4312-7.4805-2.4956-14.7021-8.5747-16.9277-8.2622-3.0264-21.0605.2666-27.6265 14.289-8.9145 19.334-11.7675 32.2344-11.5625 54.5987 1.3262 15.5205 11.1304 18.8408 19.9288 19.873 1.0009.2442 2.0429.3809 3.121.3672l.9351-.0127c1.3164.0723 2.5059.0723 3.5757-.0459l21.4287-.2803.0005-25.0009z"/><path d="m94.0986 175.7554c1.0044.2598 2.0503.4112 3.1304.4112.2334 0 .4677-.0069.7041-.0196 6.8935-.3847 12.1694-6.2832 11.7866-13.1767l-2.7881-50.001c-.0249-.4502-.0776-.8916-.1479-1.3262h-12.6851z"/><path d="m125.4389 85.6999h20.6543v-3.0362h-1.084v-5.4638h-15.9155c.0186.248.0381.497.0381.75 0 3.124-1.4414 5.915-3.6929 7.75z"/><path d="m68.7309 52.3561c-.8022-.8955-1.3462-1.6064-1.6601-2.041-.1553-.2188-.2544-.3682-.2998-.4385-.023-.0351-.0269-.043-.0269-.043h-.0005c-2.2495-3.7509-7.103-5.0039-10.8916-2.7929-3.8164 2.2246-5.1045 7.124-2.8779 10.9404l-.002-.0019c.4654.7988 4.7491 7.8212 15.1817 14.6611 10.394 6.8379 26.8828 13.3076 50.8413 13.3086h.1377c4.4184 0 7.999-3.5811 7.999-7.999 0-4.419-3.5806-8.002-7.999-8.002-21.2149-.0225-34.3086-5.54-42.2085-10.6904-3.9448-2.5851-6.585-5.1114-8.1934-6.9014z"/><path d="m336.7221 181.446h11.1739c-7.8887-44.2188-7.6485-89.5196.7734-133.6661-3.6016-.6875-7.2031-1.374-10.8047-2.0615-5.4199 28.4111-7.541 57.2842-6.3945 86.0615h-51.1348v11h2.334v38.6661h11v-14h40.9199c.6309 4.6757 1.3281 9.3437 2.1328 14zm-43.0527-20v-18.6661h38.4102c.4296 6.2325 1.0117 12.4551 1.75 18.6661z"/><path d="m249.0639.5914c-12.0996 2.8164-19.625 14.9082-16.8066 27.0078s14.9101 19.625 27.0098 16.8066c12.0996-2.8164 19.625-14.9101 16.8086-27.0098-2.8184-12.0976-14.9122-19.6229-27.0118-16.8046z"/><path d="m279.7632 49.4333c.2705-.3614.416-.5801.4599-.6485 1.7842-2.9746 5.0713-4.8359 8.5674-4.8359 1.7617 0 3.501.4717 5.0312 1.3642 4.7627 2.7784 6.377 8.9121 3.5997 13.6739-.4805.8232-5.0059 8.2412-15.8135 15.3252-.3701.2441-.7715.4922-1.1641.7382 2.5215 8.2627 5.0088 17.4473 6.1504 26.5362l-13.0771-.1699-.001 25 21.4277.2812c1.0703.1182 2.2598.1182 3.5772.0459l.9336.0127c1.0771.0137 2.1191-.123 3.1191-.3662 8.7988-1.0322 18.6055-4.3516 19.9316-19.874.2051-22.3643-2.6484-35.2647-11.5625-54.5987-6.5664-14.0224-19.3652-17.3154-27.6269-14.289-6.0791 2.2256-9.0059 9.4472-8.5742 16.9287 2.6611-2.2179 4.2646-4.1231 5.0215-5.124z"/><path d="m241.8842 111.6432c-.0703.4356-.122.877-.1474 1.3272l-2.7871 49.998c-.3867 6.8945 4.8906 12.7949 11.7842 13.1787.2363.0137.4726.0196.707.0196 1.0801 0 2.126-.1504 3.1308-.4112v-64.1123z"/><path d="m219.5337 77.9489c0-.2529.0195-.501.038-.749h-15.9121v5.4638h-1.082v3.0362h20.6484c-2.2509-1.836-3.6923-4.628-3.6923-7.751z"/><path d="m229.6626 85.9499c23.9658.0009 40.455-6.4707 50.8496-13.3106 10.4326-6.8379 14.7168-13.8613 15.1816-14.6601 2.2276-3.8165.9356-8.7149-2.8789-10.9395-3.7881-2.21-8.6406-.9561-10.8906 2.7939l-.001-.0009c-.0019.0039-.0078.0136-.0176.0302-.0527.0831-.2226.3428-.5478.7754-1.418 1.877-5.5108 6.6426-13.5967 10.9815-8.0986 4.3281-20.2441 8.3164-38.2266 8.3291-4.4189 0-8 3.581-8 8 0 4.418 3.5811 8.001 8 8.001z"/><path d="m70.2509 95.5904h6.9024l-.002 85.8556h14.9473v-71.8008h164.4712v71.8008h14.9453l.002-85.8556h6.9003v-6.4062h-208.1665z"/><path d="m154.9174 72.0329h41.168v12.667h-41.168z"/><path d="m150.0835 58.0329h38.6679v10.667h-38.6679z"/><path d="m158.7514 46.6989h38.666v8.001h-38.666z"/></svg>