<?xml version="1.0" encoding="UTF-8" standalone="no"?> <svg xmlns="http://www.w3.org/2000/svg" viewBox="0 0 64 64"><g id="Layer_46" data-name="Layer 46"><path d="M35.23,16.51v-2.2A4.21,4.21,0,0,0,31,10.1H15.68a4.21,4.21,0,0,0-4.21,4.21v2.2a4.22,4.22,0,0,0,4.21,4.21H31A4.22,4.22,0,0,0,35.23,16.51Zm-21.76,0v-2.2a2.21,2.21,0,0,1,2.21-2.21H31a2.21,2.21,0,0,1,2.21,2.21v2.2A2.21,2.21,0,0,1,31,18.72H15.68A2.21,2.21,0,0,1,13.47,16.51Z"/><path d="M57.39,13.69,48.84,3.36a1,1,0,0,0-1.41-.13L41.49,8.14,40,6.28a1.21,1.21,0,0,0-.77-.36H13.7a7.33,7.33,0,0,0-7.32,7.31V53.69A7.33,7.33,0,0,0,13.7,61H45.37a7.32,7.32,0,0,0,7.32-7.31V22.1a1.5,1.5,0,0,0-.23-.64L51.29,20l6-4.94A1,1,0,0,0,57.39,13.69ZM45.37,59H13.7a5.32,5.32,0,0,1-5.32-5.31V13.23A5.32,5.32,0,0,1,13.7,7.92h25l12,14.54V53.69A5.32,5.32,0,0,1,45.37,59Zm4.69-40.55L42.79,9.67l5.14-4.26,7.28,8.78Z"/><path d="M33.43,31.91a4.7,4.7,0,0,0-6.64,0l-7.24,7.24a4.7,4.7,0,0,0,0,6.64L26.79,53a4.7,4.7,0,0,0,6.64,0l7.24-7.24a4.7,4.7,0,0,0,0-6.64Zm5.83,12.46L32,51.61a2.69,2.69,0,0,1-3.81,0L21,44.37a2.72,2.72,0,0,1,0-3.81l7.25-7.24a2.69,2.69,0,0,1,1.9-.79,2.73,2.73,0,0,1,1.91.79l7.24,7.24A2.72,2.72,0,0,1,39.26,44.37Z"/><path d="M29.25,35.71c-.55.94-3.28,5.73-3.28,7.64a4.14,4.14,0,0,0,8.28,0c0-1.91-2.73-6.7-3.27-7.64A1,1,0,0,0,29.25,35.71Zm.86,9.78A2.14,2.14,0,0,1,28,43.35c0-.79,1.08-3.09,2.14-5.08,1.07,2,2.14,4.29,2.14,5.08A2.14,2.14,0,0,1,30.11,45.49Z"/></g></svg>