<svg viewBox="0 0 512 512" xmlns="http://www.w3.org/2000/svg"><path d="m424.2246 48h-294.3906a7.9979 7.9979 0 0 0 -8 8v298.4609a134.7167 134.7167 0 0 1 -39.7148 95.8829 7.9993 7.9993 0 0 0 5.6562 13.6562h294.3946a8.0011 8.0011 0 0 0 5.6563-2.3437 150.6035 150.6035 0 0 0 44.3984-107.1954v-298.4609a7.9979 7.9979 0 0 0 -8.0001-8zm-8 306.4609a134.68 134.68 0 0 1 -37.4219 93.5391h-273.2382a150.4468 150.4468 0 0 0 32.27-93.5391v-290.4609h278.3901z"/><path d="m185.2715 164.7656h183.5156a8 8 0 0 0 0-16h-183.5156a8 8 0 0 0 0 16z"/><path d="m185.2715 218.9688h183.5156a8 8 0 0 0 0-16h-183.5156a8 8 0 0 0 0 16z"/><path d="m185.2715 273.1719h183.5156a8 8 0 0 0 0-16h-183.5156a8 8 0 0 0 0 16z"/><path d="m185.2715 327.375h183.5156a8 8 0 0 0 0-16h-183.5156a8 8 0 0 0 0 16z"/></svg>